#!OML:ASF H:\Terrain\Patient Classification 1\Walking\steve\steve.ASF
:FULLY-SPECIFIED
:DEGREES
137
root 6.3989 15.4927 -23.4109 5.46953 -2.03 3.34762
lowerback 0.884969 -0.131414 1.26172
upperback -2.00397 -0.102923 2.01506
thorax -2.55088 -0.0550399 1.36463
lowerneck -9.66539 1.33092 -3.05008
upperneck 15.2109 2.42269 -0.699872
head 6.18165 0.94531 0.476094
rclavicle -2.07233e-014 -1.43125e-014
rhumerus -56.5672 -32.0021 -52.1627
rradius 16.3886
rwrist 26.3027
rhand -17.7753 -33.4937
rfingers 7.12502
rthumb 8.48721 -63.3031
lclavicle -2.07233e-014 -1.43125e-014
lhumerus -19.6633 4.91515 87.5281
lradius 42.0909
lwrist 24.1192
lhand -25.8546 -13.9915
lfingers 7.12502
lthumb 0.686158 15.9871
rfemur -38.9318 5.89444 18.1138
rtibia 40.2547
rfoot -6.74099 8.25791
rtoes 5.13819
lfemur 5.02883 0.066092 -26.2739
ltibia 39.7983
lfoot 10.1297 4.22525
ltoes -5.0865
138
root 6.37896 15.5316 -23.2447 5.59157 -1.70722 2.83142
lowerback 0.826468 -0.112701 1.84247
upperback -2.06061 -0.0650421 2.03759
thorax -2.57803 -0.0476607 1.06132
lowerneck -10.1346 1.15478 -2.44021
upperneck 15.7943 2.16934 -1.04591
head 6.46173 0.818336 0.252634
rclavicle 1.17283e-014 -1.11319e-014
rhumerus -55.6673 -32.4313 -53.02
rradius 16.1298
rwrist 27.0159
rhand -18.0106 -33.5839
rfingers 7.12502
rthumb 8.2601 -63.4024
lclavicle 1.17283e-014 -1.11319e-014
lhumerus -20.1635 4.59902 87.5038
lradius 40.9722
lwrist 24.0856
lhand -25.9801 -14.0292
lfingers 7.12502
lthumb 0.564928 15.9498
rfemur -38.2144 5.68527 18.8395
rtibia 40.2078
rfoot -7.23719 8.29823
rtoes 5.32058
lfemur 3.46696 0.0773777 -25.4142
ltibia 42.5505
lfoot 12.0996 4.89803
ltoes -1.61473
139
root 6.36039 15.5566 -23.0839 5.48813 -1.5188 2.40343
lowerback 1.00658 -0.0835273 2.21421
upperback -2.06631 -0.00922984 2.11862
thorax -2.68637 -0.0270647 0.935358
lowerneck -11.5295 0.864838 -1.41205
upperneck 17.2325 1.85176 -2.09776
head 7.19179 0.607571 -0.270657
rclavicle 5.51627e-015 1.59028e-014
rhumerus -54.6628 -32.8269 -53.8281
rradius 15.9211
rwrist 27.5772
rhand -17.9562 -34.0403
rfingers 7.12502
rthumb 8.3126 -63.8567
lclavicle 5.51627e-015 1.59028e-014
lhumerus -20.4771 4.94211 87.513
lradius 39.4099
lwrist 23.4406
lhand -25.4936 -14.7062
lfingers 7.12502
lthumb 1.03487 15.271
rfemur -37.1999 5.62434 19.4912
rtibia 39.9413
rfoot -7.71361 8.27531
rtoes 4.51134
lfemur 2.20148 0.091797 -24.7126
ltibia 45.2784
lfoot 12.9246 6.85139
ltoes 5.14678
140
root 6.34108 15.5858 -22.9231 5.3349 -1.52953 2.21153
lowerback 1.12201 0.0626701 2.30196
upperback -1.97545 0.190943 2.17651
thorax -2.65791 0.072128 0.938825
lowerneck -10.1429 0.945163 -2.69208
upperneck 16.0456 1.85288 -0.584904
head 6.53809 0.684871 0.415738
rclavicle -1.1778e-014 -3.18055e-015
rhumerus -53.5119 -33.1421 -54.7361
rradius 15.8439
rwrist 27.6397
rhand -17.6994 -33.742
rfingers 7.12502
rthumb 8.56046 -63.5484
lclavicle -1.1778e-014 -3.18055e-015
lhumerus -20.5659 5.28333 87.7309
lradius 37.8338
lwrist 22.7698
lhand -25.14 -15.1596
lfingers 7.12502
lthumb 1.37633 14.8157
rfemur -36.1358 5.38354 19.9694
rtibia 39.5659
rfoot -7.86537 8.66306
rtoes 4.97981
lfemur 0.890365 0.415141 -24.2837
ltibia 47.9041
lfoot 13.1181 8.57874
ltoes 7.17556
